<svg xmlns="http://www.w3.org/2000/svg"><symbol viewBox="0 0 16 16" id="star">
<g id="star" clip-path="url(#clip0_44_440)">
<path id="Star 2" d="M6.20021 4.69703L8 1.28579L9.79979 4.69703C9.95896 4.9987 10.2491 5.20947 10.5851 5.26762L14.3856 5.92519L11.6975 8.69103C11.4598 8.93563 11.3489 9.27666 11.3975 9.61427L11.9465 13.4319L8.48537 11.7301C8.17929 11.5795 7.82071 11.5796 7.51463 11.7301L4.05348 13.4319L4.6025 9.61427C4.65105 9.27666 4.54024 8.93563 4.30252 8.69103L1.6144 5.92519L5.41486 5.26762C5.75095 5.20947 6.04104 4.9987 6.20021 4.69703ZM14.5177 5.78928L14.5175 5.78947L14.5177 5.78928ZM3.8834 13.5155C3.88344 13.5155 3.88349 13.5155 3.88353 13.5155L3.8834 13.5155Z" fill="#FFC531" stroke="#FFC531" stroke-width="1.2"/>
</g>
<defs>
<clipPath id="clip0_44_440">
<rect width="16" height="16" fill="white"/>
</clipPath>
</defs>
</symbol><symbol viewBox="0 0 16 16" id="book">
<g id="book">
<path id="Accent" d="M14.6667 4.13333C14.6667 3.3866 14.6667 3.01323 14.5213 2.72801C14.3935 2.47713 14.1895 2.27316 13.9387 2.14532C13.6534 2 13.2801 2 12.5333 2H12.2667C10.7732 2 10.0265 2 9.45603 2.29065C8.95426 2.54631 8.54631 2.95426 8.29065 3.45603C8 4.02646 8 4.77319 8 6.26667V14L8.0667 13.8999C8.5298 13.2053 8.76135 12.858 9.06727 12.6065C9.33809 12.3839 9.65016 12.2169 9.9856 12.1151C10.3645 12 10.7819 12 11.6168 12H12.5333C13.2801 12 13.6534 12 13.9387 11.8547C14.1895 11.7268 14.3935 11.5229 14.5213 11.272C14.6667 10.9868 14.6667 10.6134 14.6667 9.86667V4.13333Z" stroke-width="1.5" stroke-linecap="round" stroke-linejoin="round"/>
<path id="Icon" d="M1.33325 4.13333C1.33325 3.3866 1.33325 3.01323 1.47858 2.72801C1.60641 2.47713 1.81038 2.27316 2.06126 2.14532C2.34648 2 2.71985 2 3.46659 2H3.73325C5.22673 2 5.97346 2 6.54389 2.29065C7.04566 2.54631 7.45361 2.95426 7.70927 3.45603C7.99992 4.02646 7.99992 4.77319 7.99992 6.26667V14L7.93322 13.8999C7.47012 13.2053 7.23857 12.858 6.93265 12.6065C6.66182 12.3839 6.34976 12.2169 6.01432 12.1151C5.63542 12 5.21799 12 4.38313 12H3.46659C2.71985 12 2.34648 12 2.06126 11.8547C1.81038 11.7268 1.60641 11.5229 1.47858 11.272C1.33325 10.9868 1.33325 10.6134 1.33325 9.86667V4.13333Z"  stroke-width="1.5" stroke-linecap="round" stroke-linejoin="round"/>
</g>
</symbol><symbol viewBox="0 0 28 28" id="ukraine">
<g id="ukraine" clip-path="url(#clip0_4_550)">
<path id="Vector" d="M14 28C21.732 28 28 21.732 28 14C28 6.26801 21.732 0 14 0C6.26801 0 0 6.26801 0 14C0 21.732 6.26801 28 14 28Z" fill="#FFDA44"/>
<path id="Vector_2" d="M0 14C0 6.26806 6.26806 0 14 0C21.7319 0 28 6.26806 28 14" fill="#338AF3"/>
</g>
<defs>
<clipPath id="clip0_4_550">
<rect width="28" height="28" fill="white"/>
</clipPath>
</defs>
</symbol><symbol viewBox="0 0 17.5 17.5" id="log-in">
<g id="log-in-01">
<path id="Accent" d="M12.5 2.5H13.5C14.9001 2.5 15.6002 2.5 16.135 2.77248C16.6054 3.01217 16.9878 3.39462 17.2275 3.86502C17.5 4.3998 17.5 5.09987 17.5 6.5V13.5C17.5 14.9001 17.5 15.6002 17.2275 16.135C16.9878 16.6054 16.6054 16.9878 16.135 17.2275C15.6002 17.5 14.9001 17.5 13.5 17.5H12.5" stroke="#F4C550" stroke-width="2" stroke-linecap="round" stroke-linejoin="round"/>
<path id="Icon" d="M8.33333 5.83325L12.5 9.99992M12.5 9.99992L8.33333 14.1666M12.5 9.99992L2.5 9.99992" stroke="#F4C550" stroke-width="2" stroke-linecap="round" stroke-linejoin="round"/>
</g>
</symbol><symbol viewBox="0 0 26 26" id="heart">
<path d="M22.5767 4.99419C22.0233 4.44061 21.3664 4.00147 20.6433 3.70187C19.9202 3.40226 19.1452 3.24805 18.3625 3.24805C17.5798 3.24805 16.8048 3.40226 16.0817 3.70187C15.3586 4.00147 14.7017 4.44061 14.1483 4.99419L13 6.14252L11.8517 4.99419C10.734 3.87652 9.21812 3.24863 7.6375 3.24863C6.05688 3.24863 4.541 3.87652 3.42333 4.99419C2.30567 6.11186 1.67777 7.62774 1.67777 9.20836C1.67777 10.789 2.30567 12.3049 3.42333 13.4225L4.57167 14.5709L13 22.9992L21.4283 14.5709L22.5767 13.4225C23.1302 12.8692 23.5694 12.2122 23.869 11.4892C24.1686 10.7661 24.3228 9.99105 24.3228 9.20836C24.3228 8.42566 24.1686 7.65064 23.869 6.92756C23.5694 6.20448 23.1302 5.54751 22.5767 4.99419Z" stroke-width="2" stroke-linecap="round" stroke-linejoin="round"/>
</symbol>
<symbol viewBox="0 0 48 48"  id="google">
<path id="google" fill="#FFC107" d="M43.611,20.083H42V20H24v8h11.303c-1.649,4.657-6.08,8-11.303,8c-6.627,0-12-5.373-12-12c0-6.627,5.373-12,12-12c3.059,0,5.842,1.154,7.961,3.039l5.657-5.657C34.046,6.053,29.268,4,24,4C12.955,4,4,12.955,4,24c0,11.045,8.955,20,20,20c11.045,0,20-8.955,20-20C44,22.659,43.862,21.35,43.611,20.083z"/><path fill="#FF3D00" d="M6.306,14.691l6.571,4.819C14.655,15.108,18.961,12,24,12c3.059,0,5.842,1.154,7.961,3.039l5.657-5.657C34.046,6.053,29.268,4,24,4C16.318,4,9.656,8.337,6.306,14.691z"/><path fill="#4CAF50" d="M24,44c5.166,0,9.86-1.977,13.409-5.192l-6.19-5.238C29.211,35.091,26.715,36,24,36c-5.202,0-9.619-3.317-11.283-7.946l-6.522,5.025C9.505,39.556,16.227,44,24,44z"/><path fill="#1976D2" d="M43.611,20.083H42V20H24v8h11.303c-0.792,2.237-2.231,4.166-4.087,5.571c0.001-0.001,0.002-0.001,0.003-0.002l6.19,5.238C36.971,39.205,44,34,44,24C44,22.659,43.862,21.35,43.611,20.083z"/>
</symbol>
</svg>